<?xml version="1.0" encoding="iso-8859-1"?>
<!-- Generator: Adobe Illustrator 19.0.0, SVG Export Plug-In . SVG Version: 6.00 Build 0)  -->
<svg version="1.1" id="Capa_1" xmlns="http://www.w3.org/2000/svg" xmlns:xlink="http://www.w3.org/1999/xlink" x="0px" y="0px"
	 viewBox="0 0 512.001 512.001" style="enable-background:new 0 0 512.001 512.001;" xml:space="preserve">
<path style="fill:#E5E5E5;" d="M332.8,503.468H179.2c-94.259,0-170.667-76.407-170.667-170.667h494.933
	C503.467,427.06,427.06,503.468,332.8,503.468z"/>
<path style="fill:#88B337;" d="M399.616,93.868h-7.083l22.426-22.426c13.679-13.235,15.189-34.654,3.499-49.673
	c-12.689-15.462-35.516-17.698-50.97-5.009c-0.913,0.751-1.792,1.545-2.628,2.381l-23.526,23.526v-7.083
	c0.307-13.986-10.291-25.822-24.226-27.051c-14.114-0.759-26.18,10.069-26.94,24.192c-0.026,0.469-0.034,0.939-0.034,1.408v42.667
	c0.017-14.14-11.426-25.617-25.566-25.634c-0.469,0-0.939,0.009-1.408,0.034c-13.935,1.237-24.533,13.065-24.226,27.051v41.216
	c0.017-14.14-11.426-25.617-25.566-25.634c-0.469,0-0.939,0.009-1.408,0.034c-13.935,1.229-24.533,13.065-24.226,27.051v126.549
	H332.8c14.14,0,25.6-11.46,25.6-25.6l0,0c0-14.14-11.46-25.6-25.6-25.6h41.216c13.986,0.307,25.822-10.291,27.051-24.226
	c0.759-14.114-10.069-26.18-24.192-26.94c-0.469-0.017-0.939-0.034-1.408-0.034h25.6c14.14,0.017,25.617-11.426,25.634-25.566
	c0-0.469-0.009-0.939-0.034-1.408C425.438,104.159,413.603,93.56,399.616,93.868z"/>
<g>
	<polygon style="fill:#6B962A;" points="381.5,65.767 369.434,53.701 332.8,90.335 332.8,68.268 315.734,68.268 315.734,107.401 
		281.6,141.535 281.6,110.934 264.534,110.934 264.534,158.601 230.4,192.735 230.4,153.601 213.334,153.601 213.334,209.801 
		130.501,292.634 142.567,304.701 225.4,221.868 281.6,221.868 281.6,204.801 242.467,204.801 276.6,170.668 324.267,170.668 
		324.267,153.601 293.667,153.601 327.8,119.468 366.934,119.468 366.934,102.401 344.867,102.401 	"/>
	<path style="fill:#6B962A;" d="M99.977,145.068c-23.552-0.026-42.641-19.115-42.667-42.667v-4.267l-7.475-5.606
		c-17.34-13.005-20.855-37.615-7.851-54.955s37.615-20.855,54.955-7.851l3.038,2.278l3.029-2.278
		c17.34-13.013,41.95-9.498,54.955,7.842c0.435,0.58,0.862,1.178,1.263,1.783l0,0c11.554,17.34,7.561,40.678-9.114,53.18
		l-7.467,5.606v4.267C142.618,125.953,123.529,145.042,99.977,145.068z M73.464,38.93c-1.28,0-2.551,0.111-3.814,0.333
		c-6.025,0.998-11.358,4.463-14.72,9.557c-6.537,9.788-4.292,22.98,5.12,30.054l10.88,8.166c2.15,1.613,3.413,4.139,3.413,6.827
		v8.533c0,14.14,11.46,25.6,25.6,25.6s25.6-11.46,25.6-25.6v-8.533c0-2.688,1.263-5.214,3.413-6.827l10.88-8.166
		c9.805-7.356,11.793-21.257,4.437-31.061s-21.257-11.793-31.061-4.437l-8.149,6.118c-3.038,2.278-7.202,2.278-10.24,0l-8.158-6.118
		C82.868,40.5,78.234,38.938,73.464,38.93z"/>
</g>
<g>
	<path style="fill:#DE4C3C;" d="M460.8,119.468v-17.067c9.429,0,17.067-7.637,17.067-17.067S470.23,68.268,460.8,68.268V51.201
		c18.85,0,34.133,15.283,34.133,34.133S479.651,119.468,460.8,119.468z"/>
	<rect x="187.734" y="8.534" style="fill:#DE4C3C;" width="17.067" height="17.067"/>
	<rect x="238.934" y="281.601" style="fill:#DE4C3C;" width="17.067" height="17.067"/>
	<rect x="17.067" y="128.001" style="fill:#DE4C3C;" width="17.067" height="17.067"/>
	<rect x="0" y="93.868" style="fill:#DE4C3C;" width="17.067" height="17.067"/>
</g>
<path style="fill:#FDB62F;" d="M366.934,307.201h-17.067c0-9.429-7.637-17.067-17.067-17.067s-17.067,7.637-17.067,17.067h-17.067
	c0-18.85,15.283-34.133,34.133-34.133S366.934,288.351,366.934,307.201z"/>
<path style="fill:#88B337;" d="M102.4,204.801h-8.533c0-14.14-11.46-25.6-25.6-25.6s-25.6,11.46-25.6,25.6h-8.533
	c-14.14,0-25.6,11.46-25.6,25.6c0,14.14,11.46,25.6,25.6,25.6H102.4c14.14,0,25.6-11.46,25.6-25.6
	C128,216.261,116.54,204.801,102.4,204.801z"/>
<rect x="51.2" y="256.001" style="fill:#638724;" width="34.133" height="34.133"/>
<path style="fill:#E5E5E5;" d="M452.267,196.268c-28.279,0-51.2,22.921-51.2,51.2s22.921,51.2,51.2,51.2s51.2-22.921,51.2-51.2
	S480.547,196.268,452.267,196.268z M452.267,273.068c-14.14,0-25.6-11.46-25.6-25.6s11.46-25.6,25.6-25.6s25.6,11.46,25.6,25.6
	S466.407,273.068,452.267,273.068z"/>
<path style="fill:#DEDEDE;" d="M385.485,332.801C318.072,421.872,218.991,472.184,142.857,499.5
	c11.938,2.62,24.124,3.951,36.343,3.968h153.6c94.259,0,170.667-76.408,170.667-170.667H385.485z"/>
<path d="M503.467,324.268H8.534c-4.71,0-8.533,3.823-8.533,8.533c0.111,98.918,80.282,179.089,179.2,179.2h153.6
	c98.918-0.111,179.089-80.282,179.2-179.2C512,328.09,508.178,324.268,503.467,324.268z M332.8,494.934H179.2
	c-86.187-0.102-157.269-67.533-161.911-153.6h477.423C490.07,427.401,418.987,494.832,332.8,494.934z"/>
<path d="M435.149,117.641c-0.913-14.106-10.402-26.206-23.893-30.438l9.719-9.728c16.725-16.367,18.475-42.701,4.045-61.133
	c-15.693-19.098-43.887-21.854-62.985-6.17c-1.126,0.922-2.202,1.903-3.226,2.927l-10.803,10.795
	C342.4,5.983,323.337-3.984,305.426,1.622c-14.208,4.454-23.859,17.63-23.825,32.512v13.082
	c-16.367-9.412-37.265-3.78-46.677,12.587c-3.217,5.598-4.787,11.998-4.523,18.449v11.631c-5.734-3.277-12.288-4.838-18.884-4.506
	c-18.509,1.365-32.708,16.981-32.316,35.541v123.017l-48.7,48.7l12.066,12.066l48.7-48.7H332.8
	c18.85-0.009,34.133-15.292,34.125-34.142c0-5.99-1.579-11.87-4.574-17.058h11.665c18.551,0.393,34.159-13.807,35.533-32.307
	c0.375-6.69-1.237-13.338-4.634-19.106c7.97-0.93,15.36-4.617,20.898-10.428C432.299,136.184,435.678,127.011,435.149,117.641z
	 M413.449,131.209c-3.209,3.413-7.697,5.342-12.382,5.325h-25.6c-4.71,0-8.533,3.823-8.533,8.533s3.823,8.533,8.533,8.533
	c9.429-0.017,17.075,7.62,17.092,17.041c0,0.316-0.009,0.631-0.026,0.947c-1.007,9.395-9.079,16.427-18.517,16.145H332.8
	c-4.71,0-8.533,3.823-8.533,8.533c0,4.71,3.823,8.533,8.533,8.533c9.429,0,17.067,7.637,17.067,17.067
	c0,9.429-7.637,17.067-17.067,17.067H208.333l17.067-17.067H281.6v-17.067h-39.134l34.133-34.133h47.667v-17.067h-30.601
	l34.133-34.133h39.134v-17.067h-22.067L381.5,65.767l-12.066-12.066L332.8,90.335V68.268h-17.067v39.134L281.6,141.535v-30.601
	h-17.067v47.667L230.4,192.735v-39.134h-17.067v56.201l-17.067,17.067v-105.95c-0.282-9.438,6.741-17.51,16.137-18.517
	c9.412-0.512,17.459,6.699,17.971,16.111c0.017,0.316,0.026,0.64,0.026,0.956c0,4.71,3.823,8.533,8.533,8.533
	s8.533-3.823,8.533-8.533V78.252c-0.282-9.438,6.741-17.51,16.137-18.517c9.412-0.512,17.459,6.699,17.971,16.111
	c0.017,0.316,0.026,0.64,0.026,0.956c0,4.71,3.823,8.533,8.533,8.533s8.533-3.823,8.533-8.533V34.134
	c-0.017-9.429,7.612-17.075,17.041-17.092c0.316,0,0.64,0.009,0.956,0.026c9.395,1.007,16.427,9.079,16.137,18.517v7.083
	c0,4.71,3.823,8.533,8.533,8.533c2.261,0,4.429-0.896,6.033-2.5l23.526-23.535c10.837-10.803,28.373-10.769,39.177,0.068
	c0.623,0.631,1.22,1.289,1.783,1.971c8.883,11.631,7.612,28.075-2.953,38.204l-22.426,22.426c-3.328,3.337-3.328,8.738,0,12.066
	c1.613,1.613,3.789,2.509,6.059,2.5h7.083c9.438-0.282,17.51,6.75,18.517,16.145C418.398,123.239,416.7,127.822,413.449,131.209z"/>
<path d="M99.977,145.068c23.552-0.026,42.641-19.115,42.667-42.667v-4.267l7.467-5.606c17.34-13.005,20.855-37.615,7.851-54.955
	s-37.615-20.855-54.955-7.851l-3.029,2.278l-3.038-2.278c-17.34-13.005-41.95-9.489-54.955,7.851s-9.489,41.95,7.851,54.955
	l7.475,5.606v4.267C57.336,125.953,76.425,145.042,99.977,145.068z M54.93,48.82c3.362-5.094,8.695-8.559,14.72-9.566
	c1.263-0.222,2.534-0.333,3.814-0.333c4.779,0,9.429,1.562,13.235,4.446l8.158,6.118c3.038,2.278,7.202,2.278,10.24,0l8.149-6.118
	c9.805-7.356,23.706-5.367,31.061,4.437s5.367,23.706-4.437,31.061l-10.88,8.166c-2.15,1.613-3.413,4.139-3.413,6.827v8.533
	c0,14.14-11.46,25.6-25.6,25.6s-25.6-11.46-25.6-25.6v-8.525c0-2.688-1.263-5.214-3.413-6.827l-10.88-8.166
	C50.663,71.809,48.402,58.616,54.93,48.82z"/>
<rect x="187.734" y="8.534" width="17.067" height="17.067"/>
<rect x="238.934" y="281.601" width="17.067" height="17.067"/>
<path d="M460.8,102.401v17.067c18.85,0,34.133-15.283,34.133-34.133S479.651,51.201,460.8,51.201v17.067
	c9.429,0,17.067,7.637,17.067,17.067S470.23,102.401,460.8,102.401z"/>
<rect x="17.067" y="128.001" width="17.067" height="17.067"/>
<rect x="0" y="93.868" width="17.067" height="17.067"/>
<path d="M332.8,273.068c-18.85,0-34.133,15.283-34.133,34.133h17.067c0-9.429,7.637-17.067,17.067-17.067
	s17.067,7.637,17.067,17.067h17.067C366.934,288.351,351.651,273.068,332.8,273.068z"/>
<path d="M34.134,264.534h8.533v25.6c0,4.71,3.823,8.533,8.533,8.533h34.133c4.71,0,8.533-3.823,8.533-8.533v-25.6h8.533
	c18.85,0,34.133-15.283,34.133-34.133s-15.283-34.133-34.133-34.133h-1.075c-4.693-18.261-23.305-29.252-41.557-24.559
	c-12.049,3.098-21.461,12.51-24.559,24.559h-1.075C15.284,196.268,0,211.551,0,230.401S15.284,264.534,34.134,264.534z
	 M76.8,281.601H59.734v-17.067H76.8V281.601z M34.134,213.334h8.533c4.71,0,8.533-3.823,8.533-8.533
	c0-9.429,7.637-17.067,17.067-17.067s17.067,7.637,17.067,17.067c0,4.71,3.823,8.533,8.533,8.533h8.533
	c9.429,0,17.067,7.637,17.067,17.067c0,9.429-7.637,17.067-17.067,17.067H34.134c-9.429,0-17.067-7.637-17.067-17.067
	C17.067,220.972,24.713,213.334,34.134,213.334z"/>
<path d="M452.267,221.868c-14.14,0-25.6,11.46-25.6,25.6s11.46,25.6,25.6,25.6s25.6-11.46,25.6-25.6
	S466.407,221.868,452.267,221.868z M452.267,256.001c-4.71,0-8.533-3.823-8.533-8.533s3.823-8.533,8.533-8.533
	s8.533,3.823,8.533,8.533S456.978,256.001,452.267,256.001z"/>
<path d="M452.267,187.734c-32.99,0-59.733,26.743-59.733,59.733s26.743,59.733,59.733,59.733S512,280.457,512,247.468
	C511.966,214.495,485.24,187.777,452.267,187.734z M452.267,290.134c-23.561,0-42.667-19.106-42.667-42.667
	s19.106-42.667,42.667-42.667s42.667,19.106,42.667,42.667C494.908,271.02,475.819,290.109,452.267,290.134z"/>
<g>
</g>
<g>
</g>
<g>
</g>
<g>
</g>
<g>
</g>
<g>
</g>
<g>
</g>
<g>
</g>
<g>
</g>
<g>
</g>
<g>
</g>
<g>
</g>
<g>
</g>
<g>
</g>
<g>
</g>
</svg>
